<svg version="1.1" xmlns="http://www.w3.org/2000/svg" xmlns:xlink="http://www.w3.org/1999/xlink" x="0px" y="0px" width="240.7px"
     height="368px" viewBox="0 0 240.7 368" style="overflow:visible;enable-background:new 0 0 240.7 368;" xml:space="preserve">

<defs>
</defs>
<g>
    <g class="blade">
        <g>
            <path class="st0" d="M174.5,101.3c-8.8,15.9-34.2,18.8-34.2,18.8s-11.1-23-2.3-39C146.8,65.1,206,0,206,0S183.3,85.3,174.5,101.3
                z"/>
            <path class="st1" d="M206,0c-4.4,0.6-60.2,66.8-68.1,81.1c-7.9,14.2,0.1,34.1,2,38.2L206,0z"/>
        </g>
        <g>
            <path class="st0" d="M145.1,161.4c-11.3-14.3-4.2-38.8-4.2-38.8s25.5-1.4,36.9,12.8c11.3,14.3,48.8,94,48.8,94
                S156.5,175.6,145.1,161.4z"/>
            <path class="st1" d="M226.6,229.4c1.1-4.3-38.6-81.3-48.8-94c-10.1-12.7-31.6-13-36-12.9L226.6,229.4z"/>
        </g>
        <g>
            <path class="st0" d="M101.7,103.4c18.2-1.6,34.7,17.9,34.7,17.9s-12.9,22.1-31.1,23.7C87.1,146.6,0,133.7,0,133.7
                S83.5,105,101.7,103.4z"/>
            <path class="st1" d="M0,133.7c3,3.3,89.1,12.7,105.3,11.3c16.2-1.4,28.2-19.2,30.6-22.9L0,133.7z"/>
        </g>
    </g>
    <path class="st2" d="M133.8,122.2l-5.4,223.9h20.7l-6.3-223.9c0,0-0.8-2.1-4.5-2.1C134.6,120.1,133.8,122.2,133.8,122.2z"/>
    <path class="st3" d="M148.1,114.9c4.2,5.2,3.4,12.8-1.8,17c-5.2,4.2-12.8,3.4-17-1.8c-4.2-5.2-3.4-12.8,1.8-17
        C136.3,108.9,143.9,109.7,148.1,114.9z"/>
    <path class="st4" d="M143.9,118.3c2.3,2.9,1.9,7-1,9.3c-2.9,2.3-7,1.9-9.3-1c-2.3-2.9-1.9-7,1-9.3
        C137.4,115,141.6,115.5,143.9,118.3z"/>
    <path class="st1" d="M240.7,368c-24.6-26.7-62.4-43.9-104.8-43.9c-42.4,0-80.1,17.1-104.8,43.9H240.7z"/>
</g>
</svg>