<?xml version="1.0" encoding="utf-8"?>
<!-- Generator: Adobe Illustrator 25.2.0, SVG Export Plug-In . SVG Version: 6.00 Build 0)  -->
<svg version="1.1" id="Layer_1" xmlns="http://www.w3.org/2000/svg" xmlns:xlink="http://www.w3.org/1999/xlink" x="0px" y="0px"
	 viewBox="0 0 1790 2000" style="enable-background:new 0 0 1790 2000;" xml:space="preserve">
<style type="text/css">
	.st0{fill:#87AB42;}
</style>
<path id="XMLID_4_" class="st0" d="M1288.8,864.5c-3.5,4.2-5.5,9.7-5.6,15.2c-2.3-0.3-4.6-0.6-6.9-0.2s-4.6,1.4-5.9,3.4
	c-1.5,2.3-1.4,5.4-0.7,8.1c2.3,8.8,10.5,15.8,19.6,16.6c4,0.4,8.8-0.1,11.4,3c1.6,1.8,1.9,4.3,2.2,6.7c0.8,6.7,1.4,14-2.4,19.5
	c-1.7,2.4-4.2,4.3-5.7,6.8s-1.8,6.4,0.7,8.1c1.8,1.3,4.3,0.8,6.5,0.7s5,0.5,5.6,2.7c0.4,1.4-0.3,2.9-1.1,4.2
	c-0.7,1.3-1.5,2.7-1.3,4.1s2.3,2.5,3.3,1.5c3.3,0,5.8,4.9,4.1,7.7c-1.1,1.9-3.5,2.9-4.5,4.8c-0.9,1.8-0.5,4,0,6
	c1.5,6.1,2.9,12.2,4.4,18.4c0.6,2.3,1.1,4.7,1.7,7c1.4,6.1,2.5,12.2,3.6,18.3c1,5.7,2.1,11.5,3.1,17.2c0.5,3,1,6.4-0.8,8.9
	c-1.6,2.1-4.4,2.9-7,3.5c-4,0.9-8.2,1.9-12.1,0.7s-7.3-5.1-6.4-9.1c-0.3,2.2-0.5,4.4-1.5,6.4c-1,1.9-2.9,3.6-5.1,3.6
	s-4.3-2.1-3.8-4.2c-5.7-0.3-11.3-0.7-17-1c-1.9-0.1-4-0.3-5.1-1.8c-1.7-2.1-0.2-5.2,1.2-7.5c1.4-2.3,2.9-5.4,1.2-7.5
	c-2.2,2-3.8,4.6-5.7,6.9c-5.2,6.3-13,10.4-21.1,11.2c-8.6,0.8-16.8,5.8-22.4,12.5s-7.7,16.5-3.7,24.1c1.4,2.7,3.5,5,4.7,7.8
	s1.3,6.4-1,8.5c-2.6,2.3-6.9,1.5-9.8,3.4c-2.2,1.5-3.1,4.2-4.1,6.7c-2.1,5.5-5.2,10.7-9.1,15.2c-13.1,15.2-33.5,21.5-52.7,27.2
	c-1.6,0.5-3.3,0.9-4.9,0.5s-3-2.1-2.5-3.7c0.7-2.2,4-2.3,5.2-4.2c1-1.7-0.4-4-2.2-4.7c-1.9-0.7-3.9-0.1-5.8,0.6
	c-1.8,0.8-3.6,1.8-4.6,3.5s-0.8,4.2,0.8,5.3s4.4-0.2,4.1-2.1c2.1,1.9,1.6,5.5-0.2,7.6c-1.8,2.1-4.6,3.2-7.2,4.2
	c0,0-9.4,8.1-20.2,23.8c-10.8,15.7-38.1,45.3-44.2,47.1c-6.1,1.8-13.5,6.5-16.7,12.6c-3.3,6.1-28.3,22.2-32.2,23.4s-30,19.4-31,24.9
	s2.4,6.9,4.5,11.4s1,11-11.6,17.1s-19,10.2-23.4,9s-15.7-4.7-17.9-1s-15.3,37.1-23.4,33.6s-0.6-10.2-10.4-7.5
	c-9.8,2.7-32.2,10.4-28.3,40.8s11.8,20.2,8.6,33.4c-3.3,13.2-6.1,16.1-1.4,31.6s-3.7,8.4-4.7,9.4s-3.9,4.1,0.4,3.3
	s11.8,5.3,12.6,11.6c0.8,6.3,0.2,22.8-7.1,36.9s-22.9,46.5-22.9,56.9s0,29.4,3.4,35.2c3.4,5.8,6.4,38.5-0.9,38.5s-19.3-8.3-24.2-2.8
	s-12.5,23.2-17.1,28.7s-5.5,18.7,2.8,18.7s15.6,3.1,15.3,8.3c-0.3,5.2-16.2-3.1-28.7,1.2s-27.5,4-29,19.9s-14.4,35.8-27.8,38.8
	s-44.6,4.6-68.8-58.1c0,0-5.5-21.1-5.2-34.2s-19.6-46.8-20.5-56.9s-11-33.9-26.9-53.2c-15.9-19.3-23.5-37.9-29.4-63.9
	c-5.8-26-16.5-78.3-26.9-85.9s-13.8-20.5-15.6-26.6s-25.7-51.1-27.2-58.4s-12.2-83.2-16.2-89s-3.7-11.6-5.8-21.7
	c-2.1-10.1-6.7-13.1-3.7-16.8s6.7-8.3,6.7-10.7s0-6.4,0-6.4s-4.6,9.5-5.8,8.9s-7.3-0.9-5.8-4.6s-1.5-8.9-1.5-8.9s1.5-19-0.6-24.2
	s-0.3-22.9,0-29.4s12.5-30.3,8.3-39.4c-4.3-9.2-12.5-13.8-12.8-20.2c-0.3-6.4-0.6-19.9,10.4-19.3c0,0-7.3-2.1-12.8-0.9
	s0.6-9.5-0.6-14.1s-7-11.9-1.2-12.8s11.9-4,8.3-5.2c-3.7-1.2-15.3-1.2-15.3-1.2s0.9,16.8-4.9,18.3s-7,6.7-2.8,7.9
	c4.3,1.2,12.8,12.8,0,25.4c-12.8,12.5-46.8,46.2-86.5,25.4s-83.8-80.7-76.7-85.3s12.2-5.8,14.4-0.9s3.1,8,5.2,5.5
	c2.1-2.4,6.4-11.9,14.7-10.1c8.3,1.8,8.9,5.5,12.8,0s7.6-1.8,12.8-4.3s12.2-17.4,7.6-17.4s-13.5-0.3-15.3,3.4s-29.4,14.1-56.9-8.6
	c-27.5-22.6-26.3-26.6-26.3-26.6s-12.8,0-12.2-3.4c0.6-3.4,3.4-20.2,15.6-22.9s14.4,4.9,14.1-6.1s3.1-12.8,10.7-11.3
	s34.6-2.1,36.1-1.5s11.9,11.9,20.2,6.7s28.7-18,28.7-15.6s-0.3,15,6.4,12.8c6.7-2.1,18-9.2,11.6-24.2s-15.9-38.8-17.1-43.4
	s-7.6-4-15.6-5.2s-13.8-15.9-9.8-27.2s4.9-21.4-2.4-21.4s-28.7-0.6-32.1-10.1s10.4-25.4,10.4-25.4s23.5-25.4,25.1-32.7
	c1.5-7.3,17.1-18.7,25.7-8.9s8.3,17.7,13.8,15.6c5.5-2.1,24.8-10.4,35.2-10.4s22.9-19.6,26.3-26.9c3.4-7.3-4.9-14.4,3.1-17.7
	s22.6-9.8,29.7-14.4c7-4.6,8.6-18.3,13.8-22s5.2-26.3,12.5-27.5s29.2-8.1,27-15.1s-8.6-10.7,1.5-17.1c10.1-6.4,12.5-11.6,13.1-13.8
	c0.6-2.1,22.6-9.5,20.5-13.1s-6.4-11-2.4-18s3.1-9.5-0.3-13.5c-3.4-4-2.4-12.8,3.1-15.6c5.5-2.8,38.8-13.5,34.6-16.5s-6.1-7-15-8
	s-17.4-2.8-17.1-8.6s4.9-7.6-1.8-8c-6.7-0.3-12.2-3.1-17.7-3.7s-8.6-9.5-19-9.5s-17.1-6.7-15.9-11.9s3.1-42.8-3.7-54.1
	s-8.3-13.8-4-16.2c4.3-2.4,16.5-10.1,19.6-15s8.9-3.7,10.4-6.1s6.4-8.3,1.5-10.1s-19.3-4.9-18.3-8.6c0.9-3.7,6.1-6.7,4.3-9.8
	c-1.8-3.1-15.3-5.5-18.7-5.2s-14.7-12.2-14.7-13.5c0-1.2-18.7,0.3-21.7-0.9c-3.1-1.2-8,1.8-7-3.4c0.9-5.2,0.3-20.8,4.3-22.3
	s20.5-12.2,21.1-15.9c0.6-3.7,0.6-9.2,5.2-8.9s36.1,1.5,34.6-1.8c-1.5-3.4-10.1-7.3-2.4-7.3s10.4,4,12.8,3.4
	c2.4-0.6,10.1-4.3,12.5-7s13.1,0.3,16.8-2.4c3.7-2.8,14.1-4.3,14.1-1.5s32.1,1.8,31.5,6.4c-0.6,4.6-4,8.9-0.3,8.6
	c3.7-0.3,18-5.2,19.6,1.5s19.6,21.1,27.2,22.6s23.8,2.4,22.3,8.6s-1.8,14.4,10.1,15.9s19.6,6.1,21.7,8.9s5.8,10.1,7.6,9.8
	c1.8-0.3,20.5-1.8,24.5-6.7s16.5-7,19.6-10.4s7.3-10.1,13.8-7.6c6.4,2.4,17.1-1.5,18-1.8s15.9-3.4,22.6,6.1
	c6.7,9.5,8,12.2,11.3,11.6c3.4-0.6,8.3,1.2,8.6,3.4s2.1,13.1,4.3,8.3c2.1-4.9,16.8-7.3,17.4-1.5c0.6,5.8-11.6,22-11.3,25.4
	s3.1,15-3.4,18.3c-6.4,3.4-3.7,8.9-8.6,5.8s-10.1,15.9-15.3,11.9s-1.5,11.6-3.4,14.4s-8,9.2-11.9,8.3s-19-4.6-16.2,1.8
	s7.6,16.5,2.1,16.5s-11,1.2-5.5,6.4c5.5,5.2,26.3,11.3,26,16.2c-0.3,4.9-2.8,11.3,0,12.5s6.7,15.9,3.1,19.3s-15.3,6.4-15.3,6.4
	s-18.7,10.7-22.3,4.3s3.4-6.4-4-7.6c-7.3-1.2-15.6-0.9-12.2,6.1c3.4,7,13.8,21.4,15.6,22s-0.3,8.6,0.9,11c1.2,2.4,9.8,4.6,5.2,8.9
	s-10.1,15.6-4.3,12.2s11.6-10.4,15.3-6.4s16.8,24.5,27.5,22.6c10.7-1.8,14.1,5.5,21.4,9.2c7.3,3.7,11.3,3.4,10.1,7.6
	c-1.2,4.3-6.1,4,0.3,7.6s36.4,10.7,36.7,16.5s-0.3,8.6-4.3,11.3s-26.6,19.6-27.2,22.9s2.1,11.9-1.5,12.2s-2.8,15.3-4.3,16.2
	s-8,11-7.3,12.5c0.6,1.5,11.6,10.1,16.8,8.6s6.4-2.1,10.7,1.2c4.3,3.4,14.7,12.5,18.3,11.6c3.7-0.9,11.6,15,16.5,15.3
	s15.9,13.8,22.6,13.5s15.9-1.8,19.3,1.5c3.4,3.4,6.1,7,15.6,5.2s16.2,0.3,15.9,8.3s20.8,17.7,23.8,11c3.1-6.7,17.4-8,19.3-2.8
	c1.8,5.2,5.2,6.7,7.6,1.5s21.4-4.3,23.2,0s14.7,3.7,16.5,5.5s2.4,16.2,4,17.1c1.5,0.9,8.6,0,12.5,2.1s9.5,8.7,13.6,9.9
	s10.1,1.2,10.2-0.6c0.2-1.8,15-4.7,15-1.2s-2.3,8.4,1.5,9.2s26.9-0.2,30,1.7s4.4,7.3,12.4,7.3s10.2,3.2,10.9-0.2s8.6-7.6,11.5-5
	s0.9,4.6,7,6.1s27.4,3.7,28.6,0.9s5.2,0.3,7.6,0.8s3.5,1.8,3.1-2.9c-0.5-4.7,2.8-8.7,4.7-9.3c2-0.6-0.3-10.9-5-14.8
	c-4.7-4-7.6-7.5-4.7-11.2s10.5-22.9,8.4-29.8c-2.1-6.9-0.9-12.8,1.5-13s4.3,1.2,7.2-2.1c2.9-3.4,8.7-1.5,11-2.9s19.7-4.3,20.6,4
	s2.1,19.7-1.1,21.4s-3.8,6.6-0.2,9c3.7,2.4,5.2,6.6,2.3,9.2s-5.4,7.3-1.8,10.7c3.5,3.4,12.4,8,15.3,9.6c2.9,1.7,11.6-0.6,13.9,0.3
	c2.3,0.9,22.3,8,26,5.4s8.3-5.2,18.2-5.5s4.7,2.9,14.4,3.1c9.6,0.2,31.6,3.2,33-0.5s9.9-7.2,12.2-3.8c2.3,3.4,28.6,3.5,25.5-1.8
	s-6.9-8-5-10.2c1.8-2.3,4.7-11.2,2.1-11.6c-2.6-0.5-12.5-1.4-17-4.6s-6.1-11.9-2.1-14.2s7.3-8,11.6-7.5c4.3,0.5,13.3,2.1,19.6,0.6
	c6.3-1.5,9.8-4.3,13.5-5s10.2-0.6,6.9-3.4s-3.7-8.7,3.5-10.9c7.2-2.1,20.3-7.5,20.6-13.6s0.2-13.3,11.3-13.6
	c11.2-0.3,33.6-7.8,38.7-17.9s17.3-10.2,18.7-13.1s11.9-7.2,14.5-3.7s5.2,10.2,9.3,10.1s6-0.5,7.3,1.8c1.4,2.3,14.5,4,14.7,0.9
	s17.6-17.9,23.7-18.3c6.1-0.5,15.6-4,17.3-0.2c1.7,3.8-2.8,7.8,2,8s11,0,9.5,4.3s-14.8,12.5-13,13.3s13.1-9.3,15.4-7.8
	s1.5,7.8,3.7,8c2.1,0.2,0.3,4.7,2.6,6s5,0.6,1.7,4.7c-3.4,4.1-15,18.5-11.2,18.7s3.1-4.6,7-4s9.8-0.9,10.9,1.8s13.9,6.1,19,5.2
	s11.5,10.4,12.8,13.6c1.4,3.2,5.4,7.5,1.7,10.5s-19.1,13.8-22,15s-3.1,2.4-1.4,6.7s11.9,17.3,11.5,20.6c-0.5,3.4-3.7,4.9-7.2,4.7
	s-2.4-3.1-6.1-2.1c-3.7,0.9-1.5-1.1-4.9-4.7s-6.9-12.4-8.9-9.3s-10.2,5.2-12.7,4.6c-2.4-0.6-13.3,0.8-15.3,4.1
	c-2,3.4-18.2,17.9-23.2,20.8c-5,2.9-25.5,12.7-25.5,17.1s1.1,14.5,2.6,18.3s4,9.5,0.3,10.7s-6.9,0.5-5,3.7c1.8,3.2,1.7,5.8-2,9.3
	s-21.1,20.6-20,23.2c1.1,2.6,5.8-0.5,6.9,4.3s-3.4,19.9-13.1,30.6c-9.8,10.7-13.3,39.1-15.3,40.7s-13.1,3.2-13.6,0.2
	c-0.5-3.1-8.3-6.4-11.9-5.2s-14.2-1.5-14.2-1.5s2.4,8.6,2.8,10.4c0.3,1.8,3.4,8.3,1.8,11.5c-1.5,3.2-1.4,26.3-4,27.8
	s-5.5,7.6-7.3,4.6c-1.8-3.1-5.8,11.5-6.9,9s1.2,15.4,3.7,15.3c2.4-0.2,3.7,13.3-1.1,15.7c-4.8,2.4-4.9,6.6-6,10.5
	c-1.1,4-1.2,4.7-7.6,3.4s-7.8-8.1-9.5-5.7s-8.7,9.3-10.7,5s3.2-29.2-0.6-30.7s-5.5-5.4-5-8.3c0.5-2.9-9-14.5-9-22.5s2.3-20.5-0.5-22
	s-4-1.8-2.8-5.7c1.2-3.8-7.6-4.6-7.5-0.9c0.2,3.7,2,11.6-0.9,11.5c-2.9-0.2-7.9,3.8-7.3,8.4s10.1,12.4-3.5,16.2s-16.8,2.6-16.2-2.4
	c0.6-5-2.1-9.6-2.9-5.8s-1.8,6.7-5.5,0.5c-3.7-6.3-4.7-6.4-5.2-11.9s-3.8-7-3.8-11.2s-1.7-20.8,1.7-23.2
	c3.4-2.4,11.9-12.2,15.1-12.7s18.5-0.3,19.3-3.4s8.4-10.9,10.7-12.8c2.3-2,5.5-3.1,4.9-6.4c-0.6-3.4-0.3-10.5,1.2-10.7
	s-4.1-4.7,2-4.7s12.7,0.3,10.1-1.2s-7.2-10.7-17.7-9.8s-98.2,5.7-112.2-6.7c0,0-4.3-1.5-3.2-10.4s1.8-28.4,0-31.2s-5.8-9.3-7-5
	s2.4,9.5-0.5,10.7s-11.8,5.2-17.4-3.4s-7-11.9-12.1-12.4s-17.6,1.8-17.6-0.8s0-5.4-2.1-6.1s-5.4-9.3-8.4-9.8c0,0,5.7,7.5,3.5,8.4
	c-2.1,0.9-8.3,12.5-10.5,11.3c-2.3-1.2-8.1,3.7-7.3,5.8c0.8,2.1,0.8,2.1,0.8,2.1v7.2c0,0-1.2-0.2-1.2,1.2s5.4,1.5,7,1.5s1.7,0,1.7,0
	s9.2,9.3,10.7,11.5c1.5,2.1,6.9,6.1,11.8,3.8s1.8,3.4,4.3,5.4c2.4,2,10.1,3.5,9.9,6.6s-0.8,8.1-4.1,8.1s-16.2,3.1-19.3,2.9
	S1288.8,864.5,1288.8,864.5z"/>
</svg>
