<?xml version="1.0" encoding="utf-8"?>
<!-- Generator: Adobe Illustrator 27.5.0, SVG Export Plug-In . SVG Version: 6.00 Build 0)  -->
<svg version="1.1" id="Layer_1" xmlns="http://www.w3.org/2000/svg" xmlns:xlink="http://www.w3.org/1999/xlink" x="0px" y="0px"
	 viewBox="0 0 1790 2000" style="enable-background:new 0 0 2000 2000;" xml:space="preserve">
<rect id="XMLID_2_" style="fill:#FFFFFF;" width="2000" height="2000"/>
<path id="XMLID_4_" style="fill:#001359;" d="M1288.768,864.529c-3.512,4.219-5.52,9.665-5.587,15.154
	c-2.305-0.294-4.646-0.588-6.944-0.24s-4.588,1.426-5.881,3.357c-1.547,2.31-1.401,5.37-0.692,8.059
	c2.325,8.812,10.505,15.757,19.577,16.623c4.033,0.385,8.758-0.071,11.432,2.971c1.574,1.79,1.922,4.314,2.203,6.681
	c0.789,6.651,1.416,13.992-2.446,19.463c-1.714,2.429-4.193,4.269-5.737,6.809s-1.769,6.356,0.667,8.06
	c1.83,1.281,4.291,0.834,6.521,0.71s4.971,0.515,5.589,2.662c0.409,1.421-0.322,2.897-1.06,4.178
	c-0.739,1.281-1.538,2.692-1.272,4.147s2.262,2.546,3.268,1.462c3.339-0.001,5.798,4.852,4.08,7.715
	c-1.143,1.904-3.512,2.858-4.522,4.836c-0.927,1.816-0.471,3.998,0.005,5.98c1.471,6.125,2.942,12.25,4.414,18.376
	c0.563,2.345,1.126,4.69,1.653,7.043c1.355,6.054,2.467,12.159,3.579,18.262c1.043,5.726,2.087,11.451,3.13,17.177
	c0.547,3.005,1.013,6.398-0.793,8.86c-1.574,2.145-4.387,2.892-6.978,3.497c-3.974,0.928-8.158,1.853-12.079,0.723
	c-3.921-1.13-7.346-5.092-6.375-9.055c-0.255,2.181-0.527,4.416-1.538,6.365c-1.01,1.949-2.935,3.58-5.13,3.596
	s-4.35-2.098-3.849-4.235c-5.661-0.346-11.322-0.692-16.983-1.038c-1.872-0.114-3.982-0.349-5.128-1.833
	c-1.651-2.139-0.202-5.196,1.246-7.477c1.449-2.281,2.864-5.368,1.17-7.473c-2.234,2.007-3.821,4.617-5.731,6.935
	c-5.205,6.318-12.994,10.439-21.145,11.189c-8.591,0.79-16.838,5.83-22.352,12.465c-5.514,6.635-7.671,16.483-3.692,24.137
	c1.402,2.697,3.476,5.023,4.668,7.819c1.191,2.796,1.253,6.444-1.006,8.476c-2.591,2.33-6.859,1.469-9.759,3.4
	c-2.229,1.485-3.14,4.246-4.104,6.745c-2.13,5.523-5.211,10.677-9.066,15.169c-13.071,15.23-33.471,21.544-52.742,27.152
	c-1.61,0.469-3.319,0.939-4.938,0.506c-1.62-0.434-3.02-2.146-2.484-3.735c0.728-2.157,4.036-2.255,5.16-4.234
	c0.977-1.72-0.365-4.038-2.226-4.709c-1.86-0.671-3.936-0.132-5.759,0.635c-1.805,0.76-3.6,1.822-4.565,3.526
	c-0.966,1.704-0.791,4.174,0.821,5.287c1.612,1.113,4.401-0.182,4.142-2.123c2.068,1.909,1.607,5.49-0.216,7.633
	c-1.823,2.143-4.581,3.205-7.219,4.185c0,0-9.399,8.093-20.203,23.789c-10.804,15.696-38.12,45.255-44.235,47.089
	c-6.115,1.835-13.454,6.523-16.716,12.639c-3.262,6.115-28.335,22.22-32.208,23.443c-3.873,1.223-29.966,19.366-30.985,24.87
	c-1.019,5.504,2.446,6.931,4.485,11.416c2.039,4.485,1.019,11.008-11.619,17.123s-18.958,10.192-23.443,8.969
	c-4.485-1.223-15.696-4.689-17.939-1.019c-2.242,3.669-15.289,37.101-23.443,33.635s-0.612-10.193-10.396-7.542
	c-9.785,2.65-32.208,10.396-28.335,40.77c3.873,30.374,11.823,20.181,8.562,33.431c-3.262,13.25-6.115,16.104-1.427,31.597
	s-3.669,8.358-4.689,9.377c-1.019,1.019-3.873,4.077,0.408,3.262s11.823,5.3,12.639,11.619c0.815,6.319,0.204,22.831-7.135,36.897
	s-22.933,46.478-22.933,56.874c0,10.396,0,29.354,3.363,35.164c3.364,5.81,6.421,38.528-0.917,38.528s-19.264-8.256-24.156-2.752
	c-4.892,5.504-12.537,23.239-17.123,28.743s-5.504,18.652,2.752,18.652c8.256,0,15.594,3.058,15.289,8.256
	c-0.306,5.198-16.206-3.058-28.743,1.223c-12.537,4.281-27.52,3.975-29.048,19.875s-14.371,35.776-27.825,38.833
	s-44.643,4.587-68.799-58.097c0,0-5.504-21.098-5.198-34.247c0.306-13.148-19.57-46.783-20.487-56.874
	c-0.917-10.091-11.008-33.941-26.908-53.205c-15.9-19.264-23.545-37.916-29.354-63.907c-5.81-25.991-16.512-78.278-26.908-85.922
	c-10.396-7.644-13.76-20.487-15.594-26.602s-25.685-51.064-27.214-58.403c-1.529-7.339-12.231-83.17-16.206-88.98
	c-3.975-5.81-3.669-11.619-5.81-21.71c-2.14-10.09-6.727-13.148-3.669-16.818s6.727-8.256,6.727-10.702c0-2.446,0-6.421,0-6.421
	s-4.587,9.479-5.81,8.867c-1.223-0.612-7.339-0.917-5.81-4.587s-1.529-8.867-1.529-8.867s1.529-18.958-0.612-24.156
	c-2.14-5.198-0.306-22.933,0-29.354c0.306-6.421,12.537-30.272,8.256-39.445c-4.281-9.173-12.537-13.76-12.842-20.181
	c-0.306-6.421-0.612-19.875,10.396-19.264c0,0-7.339-2.14-12.842-0.917c-5.504,1.223,0.612-9.479-0.612-14.066
	c-1.223-4.587-7.033-11.925-1.223-12.843c5.81-0.917,11.925-3.975,8.256-5.198c-3.669-1.223-15.289-1.223-15.289-1.223
	s0.917,16.818-4.892,18.346c-5.81,1.529-7.033,6.727-2.752,7.95c4.281,1.223,12.842,12.843,0,25.379
	c-12.842,12.537-46.783,46.172-86.534,25.379s-83.782-80.724-76.749-85.311c7.033-4.587,12.231-5.81,14.371-0.917
	s3.058,7.95,5.198,5.504c2.14-2.446,6.421-11.925,14.677-10.091c8.256,1.835,8.867,5.504,12.842,0
	c3.975-5.504,7.644-1.835,12.842-4.281c5.198-2.446,12.231-17.429,7.644-17.429s-13.454-0.306-15.289,3.363
	c-1.835,3.669-29.354,14.066-56.874-8.562c-27.52-22.627-26.297-26.602-26.297-26.602s-12.842,0-12.231-3.364
	c0.612-3.364,3.363-20.181,15.594-22.933c12.231-2.752,14.371,4.892,14.066-6.115c-0.306-11.008,3.058-12.842,10.702-11.314
	s34.552-2.14,36.081-1.529s11.925,11.925,20.181,6.727c8.256-5.198,28.743-18.041,28.743-15.594s-0.306,14.983,6.421,12.842
	c6.727-2.14,18.041-9.173,11.619-24.156c-6.421-14.983-15.9-38.833-17.123-43.42c-1.223-4.587-7.644-3.975-15.594-5.198
	c-7.95-1.223-13.76-15.9-9.785-27.214c3.975-11.314,4.892-21.404-2.446-21.404c-7.339,0-28.743-0.612-32.106-10.091
	c-3.363-9.479,10.396-25.379,10.396-25.379s23.545-25.379,25.073-32.718c1.529-7.339,17.123-18.652,25.685-8.867
	c8.562,9.785,8.256,17.735,13.76,15.594c5.504-2.14,24.768-10.396,35.164-10.396s22.933-19.57,26.297-26.908
	c3.363-7.339-4.892-14.371,3.058-17.735c7.95-3.364,22.627-9.785,29.66-14.371c7.033-4.587,8.562-18.346,13.76-22.016
	c5.198-3.669,5.198-26.297,12.537-27.52s30.272-7.644,28.131-14.677s-8.562-10.702,1.529-17.123
	c10.091-6.421,12.537-11.619,13.148-13.76c0.612-2.14,22.627-9.479,20.487-13.148c-2.14-3.669-6.421-11.008-2.446-18.041
	c3.975-7.033,3.058-9.479-0.306-13.454c-3.363-3.975-2.446-12.842,3.058-15.594c5.504-2.752,38.833-13.454,34.552-16.512
	s-6.115-7.033-14.983-7.95s-17.429-2.752-17.123-8.562s4.892-7.644-1.835-7.95c-6.727-0.306-12.231-3.058-17.735-3.669
	c-5.504-0.612-8.562-9.479-18.958-9.479s-17.123-6.727-15.9-11.925s3.058-42.808-3.669-54.122
	c-6.727-11.314-8.256-13.76-3.975-16.206c4.281-2.446,16.512-10.091,19.57-14.983c3.058-4.892,8.867-3.669,10.396-6.115
	s6.421-8.256,1.529-10.091c-4.892-1.835-19.264-4.892-18.346-8.562c0.917-3.669,6.115-6.727,4.281-9.785
	c-1.835-3.058-15.289-5.504-18.652-5.198c-3.364,0.306-14.677-12.231-14.677-13.454c0-1.223-18.652,0.306-21.71-0.917
	c-3.058-1.223-7.95,1.835-7.033-3.364c0.917-5.198,0.306-20.793,4.281-22.321c3.975-1.529,20.487-12.231,21.098-15.9
	c0.612-3.669,0.612-9.173,5.198-8.867c4.587,0.306,36.081,1.529,34.552-1.835c-1.529-3.364-10.091-7.339-2.446-7.339
	s10.396,3.975,12.842,3.364c2.446-0.612,10.091-4.281,12.537-7.033s13.148,0.306,16.818-2.446
	c3.669-2.752,14.066-4.281,14.066-1.529c0,2.752,32.106,1.835,31.495,6.421c-0.612,4.587-3.975,8.867-0.306,8.562
	c3.669-0.306,18.041-5.198,19.57,1.529c1.529,6.727,19.57,21.098,27.214,22.627s23.85,2.446,22.321,8.562s-1.835,14.371,10.091,15.9
	s19.57,6.115,21.71,8.867c2.14,2.752,5.81,10.091,7.644,9.785c1.835-0.306,20.487-1.835,24.462-6.727
	c3.975-4.892,16.512-7.033,19.57-10.396c3.058-3.364,7.339-10.091,13.76-7.644c6.421,2.446,17.123-1.529,18.041-1.835
	c0.917-0.306,15.9-3.363,22.627,6.115c6.727,9.479,7.95,12.231,11.314,11.619c3.363-0.612,8.256,1.223,8.562,3.363
	s2.14,13.148,4.281,8.256c2.14-4.892,16.818-7.339,17.429-1.529c0.612,5.81-11.619,22.016-11.314,25.379
	c0.306,3.364,3.058,14.983-3.364,18.346c-6.421,3.363-3.669,8.867-8.562,5.81s-10.091,15.9-15.289,11.925
	c-5.198-3.975-1.529,11.619-3.364,14.371c-1.835,2.752-7.95,9.173-11.925,8.256c-3.975-0.917-18.958-4.587-16.206,1.835
	c2.752,6.421,7.644,16.512,2.14,16.512c-5.504,0-11.008,1.223-5.504,6.421c5.504,5.198,26.297,11.314,25.991,16.206
	c-0.306,4.892-2.752,11.314,0,12.537s6.727,15.9,3.058,19.264c-3.669,3.364-15.289,6.421-15.289,6.421s-18.652,10.702-22.321,4.281
	c-3.669-6.421,3.364-6.421-3.975-7.644c-7.339-1.223-15.594-0.917-12.231,6.115c3.363,7.033,13.76,21.404,15.594,22.016
	c1.835,0.612-0.306,8.562,0.917,11.008c1.223,2.446,9.785,4.587,5.198,8.867s-10.091,15.594-4.281,12.231
	s11.619-10.396,15.289-6.421c3.669,3.975,16.818,24.462,27.52,22.627c10.702-1.835,14.066,5.504,21.404,9.173
	c7.339,3.669,11.314,3.364,10.091,7.644c-1.223,4.281-6.115,3.975,0.306,7.644c6.421,3.669,36.387,10.702,36.693,16.512
	s-0.306,8.562-4.281,11.314c-3.975,2.752-26.602,19.57-27.214,22.933s2.14,11.925-1.529,12.231s-2.752,15.289-4.281,16.206
	c-1.529,0.917-7.95,11.008-7.339,12.537c0.612,1.529,11.619,10.091,16.818,8.562c5.198-1.529,6.421-2.14,10.702,1.223
	c4.281,3.364,14.677,12.537,18.346,11.619c3.669-0.917,11.619,14.983,16.512,15.289c4.892,0.306,15.9,13.76,22.627,13.454
	c6.727-0.306,15.9-1.835,19.264,1.529c3.364,3.363,6.115,7.033,15.594,5.198s16.206,0.306,15.9,8.256
	c-0.306,7.95,20.793,17.735,23.85,11.008c3.058-6.727,17.429-7.95,19.264-2.752c1.835,5.198,5.198,6.727,7.644,1.529
	c2.446-5.198,21.404-4.281,23.239,0s14.677,3.669,16.512,5.504c1.835,1.835,2.446,16.206,3.975,17.123
	c1.529,0.917,8.562,0,12.537,2.14c3.975,2.14,9.479,8.715,13.607,9.938s10.091,1.223,10.243-0.612
	c0.153-1.835,14.983-4.739,14.983-1.223c0,3.516-2.293,8.409,1.529,9.173c3.822,0.764,26.908-0.153,29.966,1.682
	s4.434,7.339,12.384,7.339s10.243,3.211,10.855-0.153s8.562-7.644,11.467-5.045c2.905,2.599,0.917,4.587,7.033,6.115
	c6.115,1.529,27.367,3.669,28.59,0.917c1.223-2.752,5.198,0.306,7.644,0.764c2.446,0.459,3.516,1.835,3.058-2.905
	c-0.459-4.74,2.752-8.715,4.74-9.326c1.987-0.612-0.306-10.855-5.045-14.83c-4.74-3.975-7.644-7.491-4.74-11.161
	c2.905-3.669,10.549-22.933,8.409-29.813c-2.141-6.88-0.917-12.843,1.529-12.995s4.281,1.223,7.186-2.14
	c2.905-3.364,8.715-1.529,11.008-2.905c2.293-1.376,19.722-4.281,20.64,3.975c0.917,8.256,2.14,19.722-1.07,21.404
	s-3.822,6.574-0.153,9.02c3.669,2.446,5.198,6.574,2.293,9.173c-2.905,2.599-5.351,7.339-1.835,10.702
	c3.516,3.363,12.384,7.95,15.289,9.632c2.905,1.682,11.619-0.612,13.913,0.306c2.293,0.917,22.321,7.95,25.991,5.351
	c3.669-2.599,8.256-5.198,18.194-5.504c9.938-0.306,4.739,2.905,14.371,3.058c9.632,0.153,31.648,3.211,33.024-0.459
	c1.376-3.669,9.938-7.186,12.231-3.822c2.293,3.364,28.59,3.516,25.532-1.835c-3.058-5.351-6.88-7.95-5.045-10.243
	c1.835-2.293,4.74-11.161,2.14-11.619c-2.599-0.459-12.537-1.376-16.97-4.587s-6.115-11.925-2.14-14.219
	c3.975-2.293,7.339-7.95,11.619-7.491c4.281,0.459,13.301,2.14,19.57,0.612c6.268-1.529,9.785-4.281,13.454-5.045
	c3.669-0.764,10.243-0.612,6.88-3.364s-3.669-8.715,3.516-10.855c7.186-2.14,20.334-7.491,20.64-13.607s0.153-13.301,11.314-13.607
	c11.161-0.306,33.635-7.797,38.68-17.888c5.045-10.091,17.276-10.243,18.652-13.148s11.925-7.186,14.524-3.669
	c2.599,3.516,5.198,10.243,9.326,10.091s5.963-0.459,7.339,1.835c1.376,2.293,14.524,3.975,14.677,0.917
	c0.153-3.058,17.582-17.888,23.697-18.346c6.115-0.459,15.594-3.975,17.276-0.153c1.682,3.822-2.752,7.797,1.988,7.95
	s11.008,0,9.479,4.281c-1.529,4.281-14.83,12.537-12.995,13.301c1.835,0.764,13.148-9.326,15.442-7.797s1.529,7.797,3.669,7.95
	c2.14,0.153,0.306,4.74,2.599,5.963c2.293,1.223,5.045,0.612,1.682,4.74c-3.364,4.128-14.983,18.499-11.161,18.652
	c3.822,0.153,3.058-4.587,7.033-3.975c3.975,0.612,9.785-0.917,10.855,1.835s13.913,6.115,18.958,5.198
	c5.045-0.917,11.466,10.396,12.843,13.607c1.376,3.211,5.351,7.491,1.682,10.549c-3.669,3.058-19.111,13.76-22.016,14.983
	c-2.905,1.223-3.058,2.446-1.376,6.727s11.925,17.276,11.466,20.64c-0.459,3.363-3.669,4.892-7.186,4.739
	c-3.516-0.153-2.446-3.058-6.115-2.14c-3.669,0.917-1.529-1.07-4.892-4.74s-6.88-12.384-8.867-9.326s-10.243,5.198-12.69,4.587
	c-2.446-0.612-13.301,0.764-15.289,4.128c-1.988,3.364-18.194,17.888-23.239,20.793c-5.045,2.905-25.532,12.69-25.532,17.123
	s1.07,14.524,2.599,18.346c1.529,3.822,3.975,9.479,0.306,10.702s-6.88,0.459-5.045,3.669c1.835,3.211,1.682,5.81-1.988,9.326
	c-3.669,3.516-21.098,20.64-20.028,23.239c1.07,2.599,5.81-0.459,6.88,4.281s-3.364,19.875-13.148,30.577
	c-9.785,10.702-13.301,39.139-15.289,40.668s-13.148,3.211-13.607,0.153c-0.459-3.058-8.256-6.421-11.925-5.198
	s-14.219-1.529-14.219-1.529s2.446,8.562,2.752,10.396c0.306,1.835,3.364,8.256,1.835,11.466
	c-1.529,3.211-1.376,26.297-3.975,27.825c-2.599,1.529-5.504,7.644-7.339,4.587c-1.835-3.058-5.81,11.466-6.88,9.02
	c-1.07-2.446,1.223,15.442,3.669,15.289c2.446-0.153,3.669,13.301-1.07,15.747s-4.892,6.574-5.963,10.549
	c-1.07,3.975-1.223,4.74-7.644,3.364s-7.797-8.103-9.479-5.657s-8.714,9.326-10.702,5.045c-1.988-4.281,3.211-29.201-0.612-30.73
	s-5.504-5.351-5.045-8.256c0.459-2.905-9.02-14.524-9.02-22.474s2.293-20.487-0.459-22.016s-3.975-1.835-2.752-5.657
	c1.223-3.822-7.644-4.587-7.491-0.917c0.153,3.669,1.988,11.619-0.917,11.467c-2.905-0.153-7.95,3.822-7.339,8.409
	s10.091,12.384-3.516,16.206c-13.607,3.822-16.818,2.599-16.206-2.446c0.612-5.045-2.14-9.632-2.905-5.81
	c-0.765,3.822-1.835,6.727-5.504,0.459c-3.669-6.268-4.74-6.421-5.198-11.925c-0.459-5.504-3.822-7.033-3.822-11.161
	c0-4.128-1.682-20.793,1.682-23.239c3.364-2.446,11.925-12.231,15.136-12.69c3.211-0.459,18.499-0.306,19.264-3.364
	s8.409-10.855,10.702-12.843c2.293-1.987,5.504-3.058,4.892-6.421c-0.612-3.364-0.306-10.549,1.223-10.702
	c1.529-0.153-4.128-4.74,1.988-4.74s12.69,0.306,10.091-1.223c-2.599-1.529-7.186-10.702-17.735-9.785
	c-10.549,0.917-98.153,5.657-112.219-6.727c0,0-4.281-1.529-3.211-10.396c1.07-8.867,1.835-28.437,0-31.189
	c-1.835-2.752-5.81-9.326-7.033-5.045c-1.223,4.281,2.446,9.479-0.459,10.702c-2.905,1.223-11.772,5.198-17.429-3.364
	c-5.657-8.562-7.033-11.925-12.078-12.384s-17.582,1.835-17.582-0.764c0-2.599,0-5.351-2.14-6.115
	c-2.14-0.764-5.351-9.326-8.409-9.785c0,0,5.657,7.491,3.516,8.409c-2.141,0.917-8.256,12.537-10.549,11.314
	c-2.293-1.223-8.103,3.669-7.339,5.81c0.764,2.14,0.764,2.14,0.764,2.14v7.186c0,0-1.223-0.153-1.223,1.223s5.351,1.529,7.033,1.529
	s1.682,0,1.682,0s9.173,9.326,10.702,11.467c1.529,2.14,6.88,6.115,11.772,3.822c4.892-2.293,1.835,3.364,4.281,5.351
	c2.446,1.988,10.09,3.516,9.938,6.574s-0.764,8.103-4.128,8.103s-16.206,3.058-19.264,2.905S1288.768,864.529,1288.768,864.529z"/>
</svg>
